HIERARCHY
ROOT Hips
{
	OFFSET 0.000000 0.000000 0.000000
	CHANNELS 6 Xposition Yposition Zposition Zrotation Yrotation Xrotation 
	JOINT LHipJoint
	{
		OFFSET 0.000000 0.000000 0.000000
		CHANNELS 3 Zrotation Yrotation Xrotation
		JOINT LeftUpLeg
		{
			OFFSET 1.363060 -1.794630 0.839290
			CHANNELS 3 Zrotation Yrotation Xrotation
			JOINT LeftLeg
			{
				OFFSET 2.448110 -6.726130 0.000000
				CHANNELS 3 Zrotation Yrotation Xrotation
				JOINT LeftFoot
				{
					OFFSET 2.562200 -7.039590 0.000000
					CHANNELS 3 Zrotation Yrotation Xrotation
					JOINT LeftToeBase
					{
						OFFSET 0.157640 -0.433110 2.322550
						CHANNELS 3 Zrotation Yrotation Xrotation
						End Site
						{
							OFFSET 0.000000 0.000000 0.000000
						}
					}
				}
			}
		}
	}
	JOINT RHipJoint
	{
		OFFSET 0.000000 0.000000 0.000000
		CHANNELS 3 Zrotation Yrotation Xrotation
		JOINT RightUpLeg
		{
			OFFSET -1.305520 -1.794630 0.839290
			CHANNELS 3 Zrotation Yrotation Xrotation
			JOINT RightLeg
			{
				OFFSET -2.542530 -6.985550 0.000000
				CHANNELS 3 Zrotation Yrotation Xrotation
				JOINT RightFoot
				{
					OFFSET -2.568260 -7.056230 0.000000
					CHANNELS 3 Zrotation Yrotation Xrotation
					JOINT RightToeBase
					{
						OFFSET -0.164730 -0.452590 2.363150
						CHANNELS 3 Zrotation Yrotation Xrotation
						End Site
						{
							OFFSET 0.000000 0.000000 0.000000
						}
					}
				}
			}
		}
	}
	JOINT LowerBack
	{
		OFFSET 0.000000 0.000000 0.000000
		CHANNELS 3 Zrotation Yrotation Xrotation
		JOINT Spine
		{
			OFFSET 0.028270 2.035590 -0.193380
			CHANNELS 3 Zrotation Yrotation Xrotation
			JOINT Spine1
			{
				OFFSET 0.056720 2.048850 -0.042750
				CHANNELS 3 Zrotation Yrotation Xrotation
				JOINT Neck
				{
					OFFSET 0.000000 0.000000 0.000000
					CHANNELS 3 Zrotation Yrotation Xrotation
					JOINT Neck1
					{
						OFFSET -0.054170 1.746240 0.172020
						CHANNELS 3 Zrotation Yrotation Xrotation
						JOINT Head
						{
							OFFSET 0.104070 1.761360 -0.123970
							CHANNELS 3 Zrotation Yrotation Xrotation
							End Site
							{
								OFFSET 0.000000 0.000000 0.000000
							}
						}
					}
				}
				JOINT LeftShoulder
				{
					OFFSET 0.000000 0.000000 0.000000
					CHANNELS 3 Zrotation Yrotation Xrotation
					JOINT LeftArm
					{
						OFFSET 3.362410 1.200890 -0.311210
						CHANNELS 3 Zrotation Yrotation Xrotation
						JOINT LeftForeArm
						{
							OFFSET 4.983000 -0.000000 -0.000000
							CHANNELS 3 Zrotation Yrotation Xrotation
							JOINT LeftHand
							{
								OFFSET 3.483560 -0.000000 -0.000000
								CHANNELS 3 Zrotation Yrotation Xrotation
								JOINT LeftFingerBase
								{
									OFFSET 0.000000 0.000000 0.000000
									CHANNELS 3 Zrotation Yrotation Xrotation
									JOINT LeftHandIndex1
									{
										OFFSET 0.715260 -0.000000 -0.000000
										CHANNELS 3 Zrotation Yrotation Xrotation
										End Site
										{
											OFFSET 0.000000 0.000000 0.000000
										}
									}
								}
								JOINT LThumb
								{
									OFFSET 0.000000 0.000000 0.000000
									CHANNELS 3 Zrotation Yrotation Xrotation
									End Site
									{
										OFFSET 0.000000 0.000000 0.000000
									}
								}
							}
						}
					}
				}
				JOINT RightShoulder
				{
					OFFSET 0.000000 0.000000 0.000000
					CHANNELS 3 Zrotation Yrotation Xrotation
					JOINT RightArm
					{
						OFFSET -3.136600 1.374050 -0.404650
						CHANNELS 3 Zrotation Yrotation Xrotation
						JOINT RightForeArm
						{
							OFFSET -5.241900 -0.000000 -0.000000
							CHANNELS 3 Zrotation Yrotation Xrotation
							JOINT RightHand
							{
								OFFSET -3.444170 -0.000000 -0.000000
								CHANNELS 3 Zrotation Yrotation Xrotation
								JOINT RightFingerBase
								{
									OFFSET 0.000000 0.000000 0.000000
									CHANNELS 3 Zrotation Yrotation Xrotation
									JOINT RightHandIndex1
									{
										OFFSET -0.622530 -0.000000 -0.000000
										CHANNELS 3 Zrotation Yrotation Xrotation
										End Site
										{
											OFFSET 0.000000 0.000000 0.000000
										}
									}
								}
								JOINT RThumb
								{
									OFFSET 0.000000 0.000000 0.000000
									CHANNELS 3 Zrotation Yrotation Xrotation
									End Site
									{
										OFFSET 0.000000 0.000000 0.000000
									}
								}
							}
						}
					}
				}
			}
		}
	}
}
MOTION
Frames: 12
Frame Time: 0.008333
10.904432 14.336855 16.306438 -13.910936 7.323176 87.424925 3.427012 2.052833 3.852768 -8.960414 27.858425 -48.161187 27.033150 20.652621 112.190502 -2.869410 11.700497 26.806266 2.743700 10.268100 29.849300 0.589019 17.349715 -7.010159 14.233722 -16.208597 -35.458658 -25.691602 -17.780811 103.753640 -2.868612 -6.703569 44.859541 -0.365300 -3.882600 10.746700 -19.628859 12.687947 0.157262 19.513118 50.075099 -10.698098 -5.995572 -9.581898 -6.477266 -9.911738 -11.604040 -26.733528 1.193715 -15.119239 5.837916 -4.523000 -6.534900 7.751400 28.398034 -22.022126 6.951283 50.850747 -52.036168 -83.338652 39.652383 -36.921224 -39.510757 -7.264435 -3.658311 -33.562414 33.993802 -6.213055 -6.253900 -7.125000 0.000000 0.000000 11.009800 20.704300 -6.525900 -26.827534 2.246542 -1.812011 -3.056410 32.331494 -1.435984 -34.863941 36.469004 -39.448475 8.389784 10.443998 -39.954351 -37.765216 5.719170 -3.531000 7.125000 0.000000 0.000000 -18.331800 -25.374900 -9.159800 
10.904287 14.337435 16.307307 -13.401793 8.530976 87.330022 4.070282 2.017268 3.782967 -8.467169 27.869134 -48.202464 26.941918 20.309174 112.270518 -2.830017 11.715141 26.770231 2.681100 10.160000 29.496400 1.144633 17.321432 -6.899616 14.666000 -16.284880 -35.429929 -25.819561 -18.167598 103.829594 -2.849940 -6.684835 44.848382 -0.382700 -3.972800 11.000300 -22.015836 13.242264 0.611868 23.169271 49.355678 -15.929953 -6.162039 -10.600307 -4.614884 -9.829547 -11.672692 -25.856716 1.163475 -15.206918 6.051431 -4.458300 -6.589200 7.740200 27.079612 -23.254056 6.029424 50.034681 -55.656651 -82.335827 40.831666 -37.751353 -39.700221 -7.097545 -3.415526 -32.400592 34.263722 -6.381523 -6.364400 -7.125000 0.000000 0.000000 10.999100 20.544100 -6.559900 -26.132843 2.794834 -1.047321 -3.424974 32.136296 -1.190393 -33.864487 36.852678 -39.424290 8.440489 10.623127 -39.132142 -37.134434 5.047364 -2.393600 7.125000 0.000000 0.000000 -18.222900 -26.746300 -8.479500 
10.904722 14.337145 16.309046 -13.402357 8.623697 87.368526 4.133943 2.032126 3.770652 -8.427777 27.871583 -48.244943 26.925142 20.299677 112.254604 -2.807512 11.669439 26.772184 2.663900 10.129900 29.398500 1.188555 17.329570 -6.925234 14.663286 -16.280799 -35.431262 -25.837876 -18.197740 103.878094 -2.860299 -6.646819 44.862145 -0.370600 -3.910400 10.824800 -22.261033 13.225767 0.722946 23.435528 49.309647 -16.477410 -6.141700 -10.708491 -4.504622 -9.958807 -11.816586 -25.778230 1.183149 -15.341762 6.030789 -4.376200 -6.666600 7.737300 26.958303 -23.433468 5.795239 49.622550 -55.888142 -81.894000 40.952122 -37.829155 -39.916605 -7.127016 -3.451120 -32.695549 34.471901 -6.574233 -6.604000 -7.125000 0.000000 0.000000 11.135300 20.239300 -6.722100 -26.109056 2.922424 -0.926176 -3.613167 32.043775 -1.561207 -33.581863 36.809173 -39.396602 8.384248 10.639388 -38.285158 -36.825135 4.490172 -1.476700 7.125000 0.000000 0.000000 -18.153500 -27.867900 -7.935800 
10.904867 14.337580 16.310930 -13.296552 8.947804 87.380859 4.327454 2.048510 3.727365 -8.292797 27.867736 -48.283159 26.912552 20.223074 112.258487 -2.804288 11.703722 26.796820 2.683000 10.163200 29.507000 1.323604 17.342232 -6.932285 14.802000 -16.362402 -35.465955 -25.877736 -18.270809 103.959006 -2.857657 -6.648495 44.861132 -0.374200 -3.929200 10.877400 -22.823166 13.407794 0.941844 24.344911 49.051621 -17.820401 -6.170245 -11.057135 -4.013309 -10.024748 -12.019304 -25.556663 1.102290 -15.575926 5.888851 -4.257500 -6.858000 7.409300 26.733597 -23.750238 6.012996 49.467466 -55.884427 -81.808786 41.044749 -37.830253 -40.122241 -7.121229 -3.544709 -32.929589 34.459705 -6.592625 -6.578700 -7.125000 0.000000 0.000000 11.163700 20.282700 -6.728800 -26.028493 2.998648 -0.796090 -3.678708 31.962493 -1.635844 -33.681769 37.040471 -39.820818 8.059085 11.034142 -38.635159 -36.475403 3.527599 0.055400 7.125000 0.000000 0.000000 -18.273600 -29.765000 -7.121700 
10.904722 14.337870 16.312669 -13.144507 9.327727 87.341107 4.541184 2.052932 3.710043 -8.140623 27.876056 -48.307100 26.887827 20.109185 112.274538 -2.802434 11.742169 26.799891 2.685900 10.168300 29.523400 1.487765 17.337032 -6.898229 14.957962 -16.432611 -35.471253 -25.928126 -18.374702 104.023994 -2.854974 -6.651019 44.859369 -0.378000 -3.948600 10.932100 -23.538523 13.692110 1.102633 25.556888 48.664125 -19.334892 -6.189675 -11.422512 -3.438716 -10.068702 -12.248526 -25.268955 1.070193 -15.819587 5.799795 -4.116700 -7.032000 7.194700 26.344620 -24.103807 6.061177 49.262737 -56.339714 -81.657904 41.325301 -37.962126 -40.332611 -7.103373 -3.585868 -32.989638 34.547123 -6.691534 -6.649700 -7.125000 0.000000 0.000000 11.219700 20.197100 -6.785900 -25.898078 3.136603 -0.664812 -3.824456 31.886596 -1.731093 -33.624847 37.265684 -40.146832 7.878838 11.318333 -38.717266 -36.243041 2.839990 1.140800 7.125000 0.000000 0.000000 -18.399000 -31.117900 -6.545100 
10.904287 14.338304 16.314553 -12.995016 9.672619 87.286050 4.735811 2.057242 3.701309 -8.007572 27.886204 -48.325823 26.868448 19.993783 112.300238 -2.812363 11.805121 26.796563 2.699100 10.191300 29.598300 1.634358 17.328100 -6.853829 15.116686 -16.518678 -35.479418 -25.976069 -18.463830 104.086623 -2.851856 -6.661483 44.853183 -0.382700 -3.972800 11.000200 -24.179765 14.005258 1.230155 26.702450 48.261399 -20.631771 -6.195163 -11.779498 -2.915510 -10.120813 -12.553493 -25.006802 1.043925 -16.140862 5.679118 -3.949200 -7.248200 6.960500 25.987861 -24.384741 6.246648 49.176573 -56.525700 -81.644566 41.562819 -38.040815 -40.550614 -7.094459 -3.653748 -33.122664 34.614827 -6.779318 -6.704000 -7.125000 0.000000 0.000000 11.280400 20.136700 -6.839700 -25.814650 3.237429 -0.603502 -3.946964 31.826987 -1.824077 -33.673642 37.514295 -40.544418 7.705793 11.602556 -38.962210 -36.125812 2.260227 2.058900 7.125000 0.000000 0.000000 -18.588300 -32.260400 -6.078500 
10.903563 14.338449 16.316581 -12.820642 10.027406 87.194818 4.931310 2.057077 3.707712 -7.870941 27.904107 -48.331741 26.849584 19.859664 112.341188 -2.829307 11.884442 26.781592 2.716900 10.222000 29.698700 1.783258 17.309933 -6.782077 15.300044 -16.619390 -35.482570 -26.024745 -18.555210 104.142561 -2.849518 -6.673510 44.847729 -0.388500 -4.002700 11.084300 -24.830798 14.398787 1.312619 27.960280 47.773561 -21.857213 -6.192260 -12.147205 -2.382186 -10.157011 -12.942122 -24.729228 1.029681 -16.551899 5.547279 -3.762800 -7.507100 6.727700 25.587060 -24.629029 6.491301 49.179873 -56.678572 -81.737815 41.850518 -38.132571 -40.782458 -7.079003 -3.728222 -33.229308 34.671042 -6.853618 -6.732200 -7.125000 0.000000 0.000000 11.337000 20.112100 -6.881800 -25.741803 3.334476 -0.595943 -4.080441 31.779071 -1.907016 -33.759096 37.781892 -40.972246 7.591519 11.841801 -39.252184 -36.122283 1.894376 2.664600 7.125000 0.000000 0.000000 -18.807800 -33.004000 -5.800100 
10.902548 14.338594 16.319045 -12.629988 10.362754 87.056363 5.110319 2.052678 3.738760 -7.741761 27.931701 -48.315635 26.830438 19.712188 112.393283 -2.849709 11.968864 26.754961 2.737800 10.258000 29.816400 1.922497 17.278918 -6.676702 15.495066 -16.729041 -35.473607 -26.069233 -18.642294 104.189356 -2.854404 -6.666095 44.849417 -0.393000 -4.025300 11.147900 -25.443141 14.877704 1.322150 29.277788 47.221967 -22.871733 -6.184476 -12.502114 -1.892421 -10.168720 -13.421254 -24.442764 1.032847 -17.063152 5.408261 -3.564100 -7.811200 6.504300 25.160359 -24.803217 6.783951 49.287807 -56.777187 -81.958023 42.197164 -38.242247 -41.038542 -7.056149 -3.813949 -33.325548 34.717011 -6.899161 -6.720000 -7.125000 0.000000 0.000000 11.394700 20.144500 -6.909800 -25.696189 3.423481 -0.658501 -4.225780 31.751291 -1.997988 -33.870841 38.046817 -41.402520 7.543029 12.012853 -39.499864 -36.194967 1.753676 2.945800 7.125000 0.000000 0.000000 -19.011000 -33.335700 -5.707600 
10.901244 14.338594 16.321798 -12.423894 10.666901 86.866172 5.265519 2.043346 3.798375 -7.621024 27.973077 -48.273320 26.811290 19.555156 112.456123 -2.868717 12.044748 26.713419 2.759300 10.294800 29.936900 2.046014 17.233389 -6.534071 15.700153 -16.844037 -35.451694 -26.102162 -18.722465 104.220776 -2.872249 -6.614792 44.864697 -0.391800 -4.019100 11.130500 -25.983749 15.437693 1.241373 30.628846 46.627836 -23.588489 -6.175996 -12.829294 -1.477724 -10.160171 -13.997214 -24.158332 1.062102 -17.678773 5.266639 -3.352400 -8.160700 6.305500 24.718515 -24.883381 7.115196 49.507566 -56.803568 -82.313330 42.616406 -38.378373 -41.338578 -7.027377 -3.910278 -33.431857 34.764941 -6.933986 -6.689200 -7.125000 0.000000 0.000000 11.458700 20.204700 -6.934400 -25.690438 3.502439 -0.799740 -4.394019 31.748991 -2.131071 -33.985147 38.285950 -41.805767 7.577399 12.097399 -39.597060 -36.335501 1.838819 2.899100 7.125000 0.000000 0.000000 -19.182100 -33.255500 -5.803700 
10.899650 14.338304 16.324986 -12.203334 10.912377 86.600978 5.381144 2.026214 3.899816 -7.523232 28.030535 -48.189455 26.789708 19.387963 112.522606 -2.884706 12.107691 26.659809 2.779600 10.329400 30.050300 2.142635 17.164515 -6.338862 15.903800 -16.961793 -35.408381 -26.120377 -18.788092 104.241491 -2.908428 -6.499854 44.892504 -0.381100 -3.964600 10.977000 -26.404582 16.108408 1.025192 31.995380 46.020652 -23.850836 -6.195795 -13.111962 -1.179567 -10.084198 -14.651664 -23.874079 1.108501 -18.392088 5.112447 -3.140400 -8.557600 6.091200 24.290237 -24.823699 7.541259 49.923608 -56.684400 -82.913946 43.124928 -38.543457 -41.700086 -6.991292 -4.021290 -33.571622 34.808549 -6.952535 -6.632700 -7.125000 0.000000 0.000000 11.526400 20.301500 -6.951400 -25.750289 3.548326 -1.049160 -4.550816 31.800736 -2.289384 -34.160139 38.520800 -42.228786 7.614587 12.160437 -39.647297 -36.445431 1.965668 2.794600 7.125000 0.000000 0.000000 -19.302800 -33.109400 -5.916500 
10.898056 14.337725 16.328319 -11.954233 11.086402 86.226994 5.445847 1.994440 4.060948 -7.451885 28.111393 -48.043444 26.764459 19.205442 112.584610 -2.896916 12.158272 26.594743 2.798800 10.362100 30.157400 2.204918 17.060059 -6.065282 16.106377 -17.081706 -35.332426 -26.122095 -18.836159 104.246015 -2.965249 -6.317921 44.939570 -0.363400 -3.872400 10.718100 -26.662738 16.934104 0.605944 33.409664 45.421413 -23.479983 -6.260738 -13.331299 -1.046626 -9.918935 -15.387113 -23.584182 1.189225 -19.200566 4.945070 -2.914500 -9.001200 5.863400 23.871249 -24.572100 8.071311 50.562810 -56.383083 -83.813433 43.744207 -38.747486 -42.137748 -6.944572 -4.154060 -33.761387 34.840167 -6.948726 -6.538700 -7.125000 0.000000 0.000000 11.595900 20.450900 -6.955200 -25.904744 3.551416 -1.435060 -4.693369 31.940969 -2.474532 -34.437910 38.771201 -42.703315 7.652047 12.230460 -39.688883 -36.571503 2.100047 2.690600 7.125000 0.000000 0.000000 -19.439800 -32.963000 -6.036100 
10.896317 14.337000 16.331797 -11.680372 11.152341 85.751919 5.440417 1.939618 4.278235 -7.424627 28.209421 -47.834264 26.737487 19.017226 112.636251 -2.907307 12.201001 26.523092 2.817300 10.393200 30.259800 2.215459 16.911555 -5.715759 16.289813 -17.205640 -35.230588 -26.104825 -18.854207 104.239729 -3.040391 -6.074279 45.000791 -0.339200 -3.742600 10.353500 -26.685417 17.866396 -0.037689 34.725237 44.937550 -22.327981 -6.391759 -13.455288 -1.117999 -9.644234 -16.193764 -23.329575 1.301097 -20.103383 4.785341 -2.705100 -9.485800 5.642600 23.512635 -24.073938 8.727719 51.465906 -55.831741 -85.069541 44.476271 -39.001556 -42.679363 -6.884739 -4.307353 -34.021560 34.850012 -6.925407 -6.409200 -7.125000 0.000000 0.000000 11.657500 20.647300 -6.941000 -26.179389 3.482872 -1.964833 -4.784521 32.191295 -2.693092 -34.863688 39.043143 -43.250164 7.669894 12.315522 -39.736158 -36.711646 2.203268 2.647100 7.125000 0.000000 0.000000 -19.600200 -32.890200 -6.128000 
